<svg xmlns="http://www.w3.org/2000/svg" width="1280" height="800" viewBox="0 0 1280 800">
  <defs>
    <pattern id="grid" width="40" height="40" patternUnits="userSpaceOnUse">
      <path d="M40 0H0V40" fill="none" stroke="#ded9d2" stroke-width="1" opacity=".38"/>
    </pattern>
    <filter id="shadow" x="-20%" y="-20%" width="140%" height="150%">
      <feDropShadow dx="0" dy="18" stdDeviation="22" flood-color="#2b2433" flood-opacity=".14"/>
    </filter>
  </defs>
  <rect width="1280" height="800" fill="#f6f3ee"/>
  <rect width="1280" height="800" fill="url(#grid)"/>

  <g font-family="-apple-system, BlinkMacSystemFont, 'Noto Sans TC', sans-serif">
    <text x="70" y="74" fill="#6e56b3" font-size="12" font-weight="750" letter-spacing="2">OBSIDIAN-NATIVE OUTPUT</text>
    <text x="70" y="135" fill="#25222b" font-size="44" font-weight="820" letter-spacing="-1.4">每一則貼文，都是可搜尋的 Markdown</text>
    <text x="70" y="178" fill="#68616f" font-size="18" font-weight="570">YAML frontmatter、來源連結、圖片與串文層次，一次整理完成。</text>

    <g filter="url(#shadow)">
      <rect x="70" y="224" width="1140" height="510" rx="24" fill="#fffdf9" stroke="#dcd5cc" stroke-width="2"/>
      <rect x="70" y="224" width="1140" height="52" rx="24" fill="#28242e"/>
      <rect x="70" y="252" width="1140" height="24" fill="#28242e"/>
      <circle cx="100" cy="250" r="6" fill="#e37b70"/>
      <circle cx="122" cy="250" r="6" fill="#d8b65d"/>
      <circle cx="144" cy="250" r="6" fill="#66a17e"/>
      <text x="177" y="257" fill="#ded9e4" font-size="13" font-weight="650">2026-07-19_1428_把貼文留在自己的知識庫.md</text>

      <rect x="70" y="276" width="294" height="458" fill="#f0ece7"/>
      <text x="98" y="315" fill="#827b87" font-size="10" font-weight="750" letter-spacing="1.3">VAULT</text>
      <text x="98" y="350" fill="#302b36" font-size="14" font-weight="750">▾ 個人創作</text>
      <text x="118" y="383" fill="#5e5966" font-size="13" font-weight="650">▾ 社群推文</text>
      <rect x="98" y="404" width="238" height="58" rx="10" fill="#e4dcf4"/>
      <rect x="114" y="419" width="20" height="25" rx="4" fill="#fffdf9" stroke="#6e56b3"/>
      <text x="145" y="428" fill="#51466d" font-size="11" font-weight="700">把貼文留在自己的</text>
      <text x="145" y="446" fill="#51466d" font-size="11" font-weight="700">知識庫.md</text>
      <text x="118" y="498" fill="#5e5966" font-size="13" font-weight="650">▸ 附件</text>

      <g font-family="'SFMono-Regular', Consolas, monospace" font-size="13">
        <text x="404" y="315" fill="#8b672e">---</text>
        <text x="404" y="340" fill="#6e56b3">title:</text><text x="460" y="340" fill="#302b36">把貼文留在自己的知識庫</text>
        <text x="404" y="365" fill="#6e56b3">created:</text><text x="480" y="365" fill="#302b36">2026-07-19 14:28</text>
        <text x="404" y="390" fill="#6e56b3">platform:</text><text x="488" y="390" fill="#302b36">Twitter/X</text>
        <text x="404" y="415" fill="#6e56b3">status:</text><text x="468" y="415" fill="#397a5b">published</text>
        <text x="404" y="440" fill="#6e56b3">thread_count:</text><text x="520" y="440" fill="#302b36">3</text>
        <text x="404" y="465" fill="#8b672e">---</text>
      </g>

      <line x1="748" y1="304" x2="748" y2="690" stroke="#e1dbd3"/>
      <text x="786" y="329" fill="#25222b" font-size="22" font-weight="800">串文內容</text>
      <text x="786" y="368" fill="#6e56b3" font-size="13" font-weight="750">1 / 3</text>
      <rect x="786" y="386" width="376" height="76" rx="10" fill="#28242e"/>
      <text x="808" y="415" fill="#b9afc4" font-family="'SFMono-Regular', Consolas, monospace" font-size="12">```</text>
      <text x="808" y="441" fill="#fffdf9" font-size="14" font-weight="560">把社群貼文留在自己的知識庫。</text>
      <text x="1131" y="449" fill="#b9afc4" font-family="'SFMono-Regular', Consolas, monospace" font-size="12">```</text>

      <text x="786" y="501" fill="#6e56b3" font-size="13" font-weight="750">2 / 3</text>
      <rect x="786" y="519" width="376" height="76" rx="10" fill="#28242e"/>
      <text x="808" y="548" fill="#b9afc4" font-family="'SFMono-Regular', Consolas, monospace" font-size="12">```</text>
      <text x="808" y="574" fill="#fffdf9" font-size="14" font-weight="560">保留來源、時間與圖片，不靠雲端。</text>
      <text x="1131" y="582" fill="#b9afc4" font-family="'SFMono-Regular', Consolas, monospace" font-size="12">```</text>

      <g transform="translate(404 516)">
        <rect width="302" height="150" rx="15" fill="#eef6f1" stroke="#cfe2d6"/>
        <text x="22" y="34" fill="#397a5b" font-size="12" font-weight="800" letter-spacing="1">READY FOR OBSIDIAN</text>
        <text x="22" y="69" fill="#302b36" font-size="15" font-weight="700">✓ YAML 可查詢</text>
        <text x="22" y="98" fill="#302b36" font-size="15" font-weight="700">✓ 內容可直接複製</text>
        <text x="22" y="127" fill="#302b36" font-size="15" font-weight="700">✓ 圖片走相對路徑</text>
      </g>
    </g>
  </g>
</svg>
